<?xml version="1.0" standalone="no"?>
<!DOCTYPE svg PUBLIC "-//W3C//DTD SVG 20010904//EN"
 "http://www.w3.org/TR/2001/REC-SVG-20010904/DTD/svg10.dtd">
<svg version="1.0" xmlns="http://www.w3.org/2000/svg"
 width="1000.000000pt" height="1000.000000pt" viewBox="0 0 1000.000000 1000.000000"
 preserveAspectRatio="xMidYMid meet">
<metadata>
Created by potrace 1.14, written by Peter Selinger 2001-2017
</metadata>
<g transform="translate(0.000000,1000.000000) scale(0.100000,-0.100000)"
fill="#000000" stroke="none">
<path d="M4738 9995 c-2 -1 -52 -6 -113 -9 -60 -4 -119 -9 -130 -11 -11 -2
-47 -7 -80 -10 -33 -3 -69 -7 -80 -9 -11 -2 -42 -7 -70 -10 -71 -10 -308 -54
-385 -72 -1075 -249 -2032 -842 -2742 -1699 -377 -455 -689 -1018 -878 -1585
-51 -152 -119 -394 -134 -470 -2 -14 -14 -68 -25 -120 -11 -52 -25 -124 -31
-160 -5 -36 -12 -76 -14 -90 -6 -35 -15 -106 -22 -170 -3 -30 -7 -66 -10 -80
-24 -151 -25 -865 0 -995 2 -11 7 -51 11 -90 4 -38 9 -77 10 -86 2 -9 6 -40
10 -70 3 -30 13 -85 20 -124 8 -38 17 -86 20 -105 11 -64 55 -251 81 -344 14
-50 27 -101 30 -112 7 -36 104 -312 144 -414 227 -569 537 -1064 960 -1534
183 -202 506 -492 740 -662 360 -263 646 -420 1135 -625 154 -64 568 -189 740
-223 186 -37 290 -56 334 -61 30 -4 61 -8 70 -10 9 -1 43 -6 76 -9 33 -4 74
-9 90 -11 211 -26 840 -26 1010 0 17 3 50 7 75 9 92 9 159 19 290 43 74 14
149 27 165 30 17 2 107 24 200 48 675 171 1312 485 1860 919 98 78 108 86 241
204 172 153 424 417 549 576 17 21 40 50 53 65 54 62 238 328 321 463 159 257
281 501 394 788 84 214 187 541 213 680 3 14 9 41 14 60 24 89 71 367 85 500
3 30 8 69 10 85 27 193 27 792 0 1010 -2 17 -6 57 -10 89 -3 32 -7 62 -9 65
-2 3 -7 36 -10 74 -4 37 -9 73 -11 80 -2 6 -7 29 -10 50 -10 70 -50 253 -89
412 -120 482 -399 1094 -694 1525 -354 517 -774 943 -1279 1298 -382 269 -850
503 -1303 652 -133 44 -349 105 -410 116 -14 3 -33 7 -42 10 -9 3 -25 6 -35 9
-10 2 -63 12 -118 23 -55 11 -152 28 -215 37 -63 9 -125 18 -138 20 -13 2 -65
7 -115 11 -51 3 -101 8 -112 11 -22 5 -631 13 -637 8z"/>
</g>
</svg>
